<svg width="265" height="83" viewBox="0 0 265 83" fill="none" xmlns="http://www.w3.org/2000/svg">
<rect x="1" y="1" width="262.772" height="81" rx="7" fill="white"/>
<rect x="1" y="1" width="262.772" height="81" rx="7" stroke="#FF7500" stroke-width="2"/>
<path d="M43.9844 50.5312L60.3582 41.0778L72.3755 61.8926C72.6444 62.3582 72.267 62.9347 71.7291 62.8801L70.7837 62.7841L60.0939 44.2688L57.6522 45.6785L67.3234 62.4296L62.6198 61.9496C61.9059 61.8768 61.2229 62.2711 60.9291 62.9258L59.2443 66.6795L49.7526 50.2394L47.3109 51.6491L57.8205 69.8523L57.18 71.279C56.9585 71.7724 56.2703 71.8111 56.0014 71.3454L43.9844 50.5312Z" fill="#FF7500"/>
<path d="M47.3379 51.7109L49.6769 50.3605L59.0852 66.6562L57.7552 69.7542L47.3379 51.7109Z" fill="#EFEFEF"/>
<path d="M70.6484 62.7574L67.2984 62.3568L57.6992 45.7305L60.0382 44.38L70.6484 62.7574Z" fill="#EFEFEF"/>
<path d="M44.7207 50.5312L28.3469 41.0778L16.3295 61.8926C16.0607 62.3582 16.4381 62.9347 16.976 62.8801L17.9214 62.7841L28.6112 44.2688L31.0529 45.6785L21.3816 62.4296L26.0853 61.9496C26.7992 61.8768 27.4822 62.2711 27.776 62.9258L29.4608 66.6795L38.9525 50.2394L41.3942 51.6491L30.8846 69.8523L31.5251 71.279C31.7466 71.7724 32.4348 71.8111 32.7037 71.3454L44.7207 50.5312Z" fill="#FF7500"/>
<path d="M41.3672 51.7109L39.0282 50.3605L29.6199 66.6562L30.9499 69.7542L41.3672 51.7109Z" fill="#EFEFEF"/>
<path d="M18.0566 62.7574L21.4066 62.3568L31.0059 45.7305L28.6668 44.38L18.0566 62.7574Z" fill="#EFEFEF"/>
<path d="M41.0262 12.1869C42.7398 10.7189 45.2677 10.7189 46.9813 12.1869L48.1044 13.149C49.1567 14.0505 50.5607 14.4266 51.9228 14.1721L53.3765 13.9004C55.5946 13.4859 57.7837 14.7498 58.5338 16.8779L59.0254 18.2727C59.4859 19.5794 60.5137 20.6072 61.8206 21.0678L63.2154 21.5593C65.3435 22.3093 66.6075 24.4985 66.1929 26.7164L65.9213 28.1701C65.6667 29.5321 66.0429 30.9361 66.9444 31.9883L67.9065 33.1114C69.3745 34.825 69.3745 37.3528 67.9065 39.0663L66.9444 40.1894C66.0429 41.2417 65.6667 42.6456 65.9213 44.0076L66.1929 45.4613C66.6075 47.6793 65.3435 49.8684 63.2154 50.6184L61.8206 51.11C60.5137 51.5705 59.4859 52.5983 59.0254 53.9051L58.5338 55.2998C57.7837 57.4279 55.5945 58.6918 53.3765 58.2773L51.9228 58.0056C50.5607 57.7511 49.1567 58.1273 48.1044 59.0287L46.9813 59.9908C45.2677 61.4588 42.7398 61.4588 41.0262 59.9908L39.9031 59.0287C38.8508 58.1273 37.4468 57.7511 36.0848 58.0056L34.631 58.2773C32.413 58.6918 30.2238 57.4279 29.4737 55.2998L28.9822 53.9051C28.5216 52.5983 27.4938 51.5705 26.187 51.11L24.7921 50.6184C22.664 49.8684 21.4001 47.6793 21.8146 45.4613L22.0863 44.0076C22.3408 42.6456 21.9646 41.2417 21.0632 40.1894L20.101 39.0663C18.633 37.3528 18.633 34.825 20.101 33.1114L21.0632 31.9883C21.9646 30.9361 22.3408 29.5321 22.0863 28.1701L21.8146 26.7164C21.4001 24.4985 22.664 22.3093 24.7921 21.5593L26.187 21.0678C27.4938 20.6072 28.5216 19.5794 28.9822 18.2727L29.4737 16.8779C30.2238 14.7498 32.413 13.4859 34.631 13.9004L36.0848 14.1721C37.4468 14.4266 38.8508 14.0505 39.9031 13.149L41.0262 12.1869Z" fill="#484BA0"/>
<path d="M62 36C62 45.9411 53.9411 54 44 54C34.0589 54 26 45.9411 26 36C26 26.0589 34.0589 18 44 18C53.9411 18 62 26.0589 62 36Z" fill="white"/>
<path d="M52.0115 28.6009C52.9521 27.7701 54.401 27.8012 55.3035 28.6918C56.206 29.5823 56.2311 31.0057 55.3809 31.9258L55.2957 32.0132L42.7135 44.3158C41.8098 45.1995 40.3664 45.2272 39.4289 44.3988L39.3397 44.3158L33.7042 38.8059L33.6193 38.7183C32.769 37.7982 32.7939 36.3748 33.6964 35.4842C34.5989 34.5937 36.0478 34.5627 36.9884 35.3936L37.0778 35.4766L41.0265 39.3373L51.9221 28.6841L52.0115 28.6009Z" fill="#67A700"/>
<path d="M84.7051 0V83" stroke="#E2E2FF" stroke-width="2"/>
<path d="M124.585 32.1258C123.427 32.1258 122.361 31.9352 121.386 31.5539C120.412 31.1727 119.565 30.6431 118.845 29.9653C118.124 29.2734 117.567 28.4685 117.171 27.5506C116.776 26.6186 116.578 25.6019 116.578 24.5004C116.578 23.399 116.776 22.3893 117.171 21.4714C117.567 20.5394 118.124 19.7345 118.845 19.0567C119.565 18.3648 120.412 17.8282 121.386 17.4469C122.361 17.0656 123.42 16.875 124.564 16.875C125.722 16.875 126.781 17.0656 127.741 17.4469C128.715 17.8282 129.563 18.3648 130.283 19.0567C131.003 19.7345 131.561 20.5394 131.956 21.4714C132.351 22.3893 132.549 23.399 132.549 24.5004C132.549 25.6019 132.351 26.6186 131.956 27.5506C131.561 28.4826 131.003 29.2875 130.283 29.9653C129.563 30.6431 128.715 31.1727 127.741 31.5539C126.781 31.9352 125.729 32.1258 124.585 32.1258ZM124.564 29.7111C125.312 29.7111 126.004 29.584 126.639 29.3298C127.275 29.0757 127.826 28.7156 128.292 28.2496C128.758 27.7695 129.118 27.2187 129.372 26.5974C129.64 25.962 129.774 25.263 129.774 24.5004C129.774 23.7379 129.64 23.0459 129.372 22.4246C129.118 21.7892 128.758 21.2384 128.292 20.7724C127.826 20.2923 127.275 19.9252 126.639 19.671C126.004 19.4168 125.312 19.2897 124.564 19.2897C123.815 19.2897 123.123 19.4168 122.488 19.671C121.866 19.9252 121.316 20.2923 120.836 20.7724C120.37 21.2384 120.003 21.7892 119.734 22.4246C119.48 23.0459 119.353 23.7379 119.353 24.5004C119.353 25.2488 119.48 25.9408 119.734 26.5762C120.003 27.2117 120.37 27.7695 120.836 28.2496C121.302 28.7156 121.852 29.0757 122.488 29.3298C123.123 29.584 123.815 29.7111 124.564 29.7111Z" fill="#3C3C46"/>
<path d="M108.491 32.1258C107.333 32.1258 106.224 31.9634 105.165 31.6387C104.106 31.2997 103.266 30.869 102.645 30.3466L103.598 28.2072C104.191 28.6732 104.925 29.0615 105.801 29.3722C106.676 29.6829 107.573 29.8382 108.491 29.8382C109.267 29.8382 109.896 29.7535 110.376 29.584C110.856 29.4146 111.209 29.1886 111.435 28.9062C111.661 28.6097 111.774 28.2778 111.774 27.9107C111.774 27.4588 111.611 27.0987 111.287 26.8304C110.962 26.548 110.538 26.3291 110.016 26.1738C109.507 26.0043 108.935 25.849 108.3 25.7078C107.679 25.5666 107.05 25.4042 106.415 25.2206C105.794 25.0229 105.222 24.7758 104.699 24.4792C104.191 24.1686 103.774 23.7591 103.449 23.2507C103.125 22.7423 102.962 22.0928 102.962 21.302C102.962 20.4971 103.174 19.7628 103.598 19.0991C104.035 18.4213 104.692 17.8847 105.568 17.4893C106.457 17.0798 107.58 16.875 108.935 16.875C109.825 16.875 110.708 16.988 111.583 17.2139C112.459 17.4398 113.221 17.7646 113.871 18.1883L113.002 20.3276C112.339 19.9322 111.654 19.6427 110.948 19.4592C110.242 19.2615 109.564 19.1626 108.914 19.1626C108.152 19.1626 107.53 19.2544 107.05 19.438C106.584 19.6216 106.238 19.8616 106.012 20.1582C105.801 20.4547 105.695 20.7936 105.695 21.1749C105.695 21.6268 105.85 21.9939 106.161 22.2763C106.485 22.5446 106.902 22.7565 107.41 22.9118C107.933 23.0671 108.512 23.2225 109.147 23.3778C109.783 23.519 110.411 23.6814 111.032 23.865C111.668 24.0485 112.24 24.2886 112.748 24.5851C113.271 24.8817 113.687 25.2841 113.998 25.7925C114.323 26.3009 114.485 26.9434 114.485 27.72C114.485 28.5108 114.266 29.2451 113.828 29.9229C113.405 30.5866 112.748 31.1232 111.859 31.5327C110.969 31.9281 109.846 32.1258 108.491 32.1258Z" fill="#3C3C46"/>
<path d="M96.7051 31.9131V17.0859H99.4587V31.9131H96.7051Z" fill="#3C3C46"/>
<path d="M242.905 32.125C241.86 32.125 240.836 31.9767 239.833 31.6801C238.845 31.3695 238.012 30.9458 237.334 30.4092L238.499 28.2699C239.036 28.7076 239.685 29.0607 240.448 29.329C241.224 29.5973 242.029 29.7314 242.862 29.7314C243.837 29.7314 244.599 29.5267 245.15 29.1171C245.715 28.7076 245.997 28.1569 245.997 27.465C245.997 26.999 245.877 26.5895 245.637 26.2364C245.411 25.8834 245.002 25.6151 244.409 25.4315C243.83 25.248 243.032 25.1562 242.015 25.1562H238.435L239.198 17.0859H247.904V19.3947H240.215L241.655 18.0815L241.083 24.1183L239.643 22.8262H242.629C244.098 22.8262 245.277 23.0239 246.167 23.4193C247.071 23.8005 247.727 24.3371 248.137 25.0291C248.56 25.7069 248.772 26.4836 248.772 27.3591C248.772 28.2205 248.56 29.0112 248.137 29.7314C247.713 30.4516 247.063 31.0306 246.188 31.4683C245.327 31.9061 244.232 32.125 242.905 32.125Z" fill="#3C3C46"/>
<path d="M231.873 31.9131V18.145L233.081 19.3947H228.738V17.0859H234.627V31.9131H231.873Z" fill="#3C3C46"/>
<path d="M221.029 32.1258C219.857 32.1258 218.798 31.8293 217.852 31.2362C216.92 30.6431 216.185 29.7817 215.649 28.652C215.112 27.5082 214.844 26.1243 214.844 24.5004C214.844 22.8765 215.112 21.4997 215.649 20.37C216.185 19.2262 216.92 18.3577 217.852 17.7646C218.798 17.1715 219.857 16.875 221.029 16.875C222.215 16.875 223.274 17.1715 224.206 17.7646C225.138 18.3577 225.872 19.2262 226.409 20.37C226.96 21.4997 227.235 22.8765 227.235 24.5004C227.235 26.1243 226.96 27.5082 226.409 28.652C225.872 29.7817 225.138 30.6431 224.206 31.2362C223.274 31.8293 222.215 32.1258 221.029 32.1258ZM221.029 29.7323C221.721 29.7323 222.321 29.5487 222.829 29.1816C223.338 28.8003 223.733 28.2213 224.015 27.4447C224.312 26.668 224.46 25.6866 224.46 24.5004C224.46 23.3001 224.312 22.3187 224.015 21.5562C223.733 20.7795 223.338 20.2076 222.829 19.8404C222.321 19.4592 221.721 19.2685 221.029 19.2685C220.365 19.2685 219.772 19.4592 219.25 19.8404C218.741 20.2076 218.339 20.7795 218.042 21.5562C217.76 22.3187 217.619 23.3001 217.619 24.5004C217.619 25.6866 217.76 26.668 218.042 27.4447C218.339 28.2213 218.741 28.8003 219.25 29.1816C219.772 29.5487 220.365 29.7323 221.029 29.7323Z" fill="#3C3C46"/>
<path d="M201.902 31.914V30.0712L207.79 24.4792C208.285 24.0132 208.652 23.6037 208.892 23.2507C209.132 22.8977 209.287 22.5729 209.358 22.2763C209.443 21.9657 209.485 21.6762 209.485 21.4079C209.485 20.7301 209.252 20.2076 208.786 19.8404C208.32 19.4592 207.635 19.2685 206.731 19.2685C206.011 19.2685 205.355 19.3956 204.762 19.6498C204.183 19.904 203.681 20.2923 203.258 20.8148L201.33 19.3321C201.909 18.5554 202.686 17.9553 203.66 17.5316C204.649 17.0939 205.75 16.875 206.964 16.875C208.038 16.875 208.97 17.0515 209.76 17.4045C210.565 17.7435 211.18 18.2306 211.603 18.8661C212.041 19.5015 212.26 20.257 212.26 21.1325C212.26 21.6126 212.196 22.0928 212.069 22.5729C211.942 23.0389 211.702 23.5331 211.349 24.0556C210.996 24.5781 210.481 25.1641 209.803 25.8137L204.74 30.6219L204.168 29.584H212.832V31.914H201.902Z" fill="#3C3C46"/>
<path d="M196.151 23.9966C195.671 23.9966 195.261 23.8342 194.922 23.5095C194.584 23.1705 194.414 22.7469 194.414 22.2386C194.414 21.7019 194.584 21.2783 194.922 20.9676C195.261 20.6429 195.671 20.4805 196.151 20.4805C196.631 20.4805 197.041 20.6429 197.38 20.9676C197.718 21.2783 197.888 21.7019 197.888 22.2386C197.888 22.7469 197.718 23.1705 197.38 23.5095C197.041 23.8342 196.631 23.9966 196.151 23.9966ZM196.151 32.0669C195.671 32.0669 195.261 31.9045 194.922 31.5797C194.584 31.2408 194.414 30.8171 194.414 30.3088C194.414 29.7722 194.584 29.3485 194.922 29.0379C195.261 28.7131 195.671 28.5507 196.151 28.5507C196.631 28.5507 197.041 28.7131 197.38 29.0379C197.718 29.3485 197.888 29.7722 197.888 30.3088C197.888 30.8171 197.718 31.2408 197.38 31.5797C197.041 31.9045 196.631 32.0669 196.151 32.0669Z" fill="#3C3C46"/>
<path d="M186.379 31.9131V18.145L187.586 19.3947H183.244V17.0859H189.133V31.9131H186.379Z" fill="#3C3C46"/>
<path d="M175.537 32.1258C174.365 32.1258 173.305 31.8293 172.359 31.2362C171.427 30.6431 170.693 29.7817 170.156 28.652C169.62 27.5082 169.352 26.1243 169.352 24.5004C169.352 22.8765 169.62 21.4997 170.156 20.37C170.693 19.2262 171.427 18.3577 172.359 17.7646C173.305 17.1715 174.365 16.875 175.537 16.875C176.723 16.875 177.782 17.1715 178.714 17.7646C179.646 18.3577 180.38 19.2262 180.917 20.37C181.468 21.4997 181.743 22.8765 181.743 24.5004C181.743 26.1243 181.468 27.5082 180.917 28.652C180.38 29.7817 179.646 30.6431 178.714 31.2362C177.782 31.8293 176.723 32.1258 175.537 32.1258ZM175.537 29.7323C176.229 29.7323 176.829 29.5487 177.337 29.1816C177.845 28.8003 178.241 28.2213 178.523 27.4447C178.82 26.668 178.968 25.6866 178.968 24.5004C178.968 23.3001 178.82 22.3187 178.523 21.5562C178.241 20.7795 177.845 20.2076 177.337 19.8404C176.829 19.4592 176.229 19.2685 175.537 19.2685C174.873 19.2685 174.28 19.4592 173.757 19.8404C173.249 20.2076 172.847 20.7795 172.55 21.5562C172.268 22.3187 172.126 23.3001 172.126 24.5004C172.126 25.6866 172.268 26.668 172.55 27.4447C172.847 28.2213 173.249 28.8003 173.757 29.1816C174.28 29.5487 174.873 29.7323 175.537 29.7323Z" fill="#3C3C46"/>
<path d="M160.861 32.1258C159.689 32.1258 158.63 31.8293 157.684 31.2362C156.752 30.6431 156.017 29.7817 155.481 28.652C154.944 27.5082 154.676 26.1243 154.676 24.5004C154.676 22.8765 154.944 21.4997 155.481 20.37C156.017 19.2262 156.752 18.3577 157.684 17.7646C158.63 17.1715 159.689 16.875 160.861 16.875C162.047 16.875 163.106 17.1715 164.038 17.7646C164.97 18.3577 165.704 19.2262 166.241 20.37C166.792 21.4997 167.067 22.8765 167.067 24.5004C167.067 26.1243 166.792 27.5082 166.241 28.652C165.704 29.7817 164.97 30.6431 164.038 31.2362C163.106 31.8293 162.047 32.1258 160.861 32.1258ZM160.861 29.7323C161.553 29.7323 162.153 29.5487 162.661 29.1816C163.17 28.8003 163.565 28.2213 163.847 27.4447C164.144 26.668 164.292 25.6866 164.292 24.5004C164.292 23.3001 164.144 22.3187 163.847 21.5562C163.565 20.7795 163.17 20.2076 162.661 19.8404C162.153 19.4592 161.553 19.2685 160.861 19.2685C160.197 19.2685 159.604 19.4592 159.082 19.8404C158.573 20.2076 158.171 20.7795 157.874 21.5562C157.592 22.3187 157.451 23.3001 157.451 24.5004C157.451 25.6866 157.592 26.668 157.874 27.4447C158.171 28.2213 158.573 28.8003 159.082 29.1816C159.604 29.5487 160.197 29.7323 160.861 29.7323Z" fill="#3C3C46"/>
<path d="M145.971 16.875C147.327 16.875 148.478 17.1645 149.424 17.7434C150.384 18.3083 151.119 19.1344 151.627 20.2217C152.135 21.309 152.389 22.6505 152.389 24.2462C152.389 25.9408 152.079 27.3741 151.457 28.5461C150.85 29.7182 150.003 30.6078 148.916 31.215C147.828 31.8222 146.564 32.1258 145.124 32.1258C144.376 32.1258 143.663 32.0482 142.985 31.8928C142.307 31.7375 141.721 31.4974 141.227 31.1727L142.243 29.0968C142.653 29.3651 143.098 29.5558 143.578 29.6688C144.058 29.7676 144.552 29.817 145.061 29.817C146.459 29.817 147.567 29.3863 148.386 28.5249C149.205 27.6636 149.615 26.3926 149.615 24.7122C149.615 24.4439 149.608 24.1333 149.593 23.7802C149.579 23.4131 149.53 23.0459 149.445 22.6788L150.292 23.6108C150.052 24.1898 149.706 24.6769 149.255 25.0723C148.803 25.4536 148.273 25.7431 147.666 25.9408C147.059 26.1385 146.388 26.2373 145.654 26.2373C144.693 26.2373 143.825 26.0537 143.048 25.6866C142.286 25.3053 141.679 24.7758 141.227 24.098C140.775 23.406 140.549 22.6011 140.549 21.6832C140.549 20.6948 140.789 19.8475 141.269 19.1414C141.749 18.4213 142.399 17.8635 143.218 17.4681C144.051 17.0727 144.969 16.875 145.971 16.875ZM146.12 19.0355C145.555 19.0355 145.053 19.1414 144.616 19.3533C144.178 19.551 143.832 19.8404 143.578 20.2217C143.338 20.5889 143.218 21.0337 143.218 21.5562C143.218 22.3328 143.486 22.9471 144.023 23.399C144.559 23.8508 145.279 24.0768 146.183 24.0768C146.776 24.0768 147.299 23.9709 147.751 23.7591C148.202 23.5331 148.556 23.2295 148.81 22.8482C149.064 22.4529 149.191 22.0151 149.191 21.535C149.191 21.069 149.071 20.6524 148.831 20.2853C148.591 19.904 148.245 19.6004 147.793 19.3744C147.341 19.1485 146.783 19.0355 146.12 19.0355Z" fill="#3C3C46"/>
<path d="M115.419 53.5518C115.419 53.0646 115.456 52.6978 115.42 52.2754C115.39 51.9284 115.315 51.7153 115.213 51.584L115.168 51.5322C115.044 51.4088 114.821 51.3177 114.425 51.2842C114.003 51.2485 113.638 51.2861 113.153 51.2861C112.092 51.2861 111.305 50.9417 110.581 50.2686L110.437 50.1299C109.888 49.5818 109.529 49.225 109.229 48.9961C108.947 48.7805 108.806 48.75 108.705 48.75C108.604 48.75 108.463 48.7805 108.181 48.9961C107.881 49.225 107.522 49.5818 106.974 50.1299C106.209 50.8949 105.389 51.2861 104.257 51.2861C103.77 51.2861 103.403 51.2486 102.98 51.2852C102.634 51.3152 102.42 51.3898 102.289 51.4922L102.237 51.5371C102.114 51.6616 102.023 51.8843 101.989 52.2803C101.954 52.7023 101.991 53.0668 101.991 53.5518C101.991 54.6837 101.6 55.5036 100.835 56.2686C100.287 56.8167 99.93 57.1756 99.7012 57.4756C99.4856 57.7581 99.4551 57.8987 99.4551 58L99.4629 58.085C99.4816 58.1805 99.5395 58.3124 99.7012 58.5244C99.93 58.8244 100.287 59.1834 100.835 59.7314L101.108 60.0186C101.367 60.3066 101.579 60.6029 101.729 60.9463C101.931 61.4096 101.991 61.8926 101.991 62.4482C101.991 62.9353 101.954 63.3022 101.99 63.7246C102.025 64.121 102.117 64.3432 102.242 64.4678L102.294 64.5117C102.425 64.6125 102.639 64.6865 102.985 64.7158C103.407 64.7514 103.772 64.7139 104.257 64.7139C104.787 64.7139 105.259 64.7644 105.714 64.9522C106.169 65.14 106.541 65.4374 106.92 65.8164L107.415 66.3408C107.57 66.5069 107.725 66.6669 107.912 66.8301C108.265 67.1386 108.52 67.25 108.705 67.25C108.89 67.25 109.145 67.1386 109.498 66.8301C109.871 66.5036 110.118 66.1883 110.49 65.8164L110.774 65.5479C111.06 65.2954 111.355 65.093 111.696 64.9522C112.151 64.7644 112.623 64.7139 113.153 64.7139C113.638 64.7139 114.003 64.7514 114.425 64.7158C114.82 64.6824 115.042 64.591 115.167 64.4678H115.168L115.213 64.416C115.315 64.2847 115.39 64.0715 115.42 63.7246C115.456 63.3022 115.419 62.9354 115.419 62.4482C115.419 61.8927 115.478 61.4095 115.681 60.9463C115.881 60.4883 116.192 60.1145 116.575 59.7314L117.262 59.0352C117.448 58.8393 117.595 58.6744 117.709 58.5244C117.925 58.2418 117.955 58.1013 117.955 58C117.955 57.8987 117.925 57.7582 117.709 57.4756C117.595 57.3256 117.448 57.1606 117.262 56.9648L116.575 56.2686C116.192 55.8855 115.882 55.5117 115.682 55.0537C115.479 54.5904 115.419 54.1074 115.419 53.5518ZM116.919 53.5518C116.919 54.0023 116.969 54.2543 117.056 54.4531C117.145 54.6574 117.302 54.8744 117.636 55.208L118.349 55.9316C118.562 56.1564 118.749 56.3661 118.901 56.5654C119.219 56.9815 119.455 57.4388 119.455 58C119.455 58.5611 119.219 59.0185 118.901 59.4346C118.749 59.6339 118.562 59.8436 118.349 60.0684L117.636 60.792C117.302 61.1256 117.145 61.3427 117.056 61.5469C116.969 61.7457 116.919 61.9977 116.919 62.4482C116.919 62.7575 116.958 63.355 116.915 63.8535C116.872 64.3456 116.743 64.9533 116.313 65.4375L116.224 65.5322C115.725 66.0262 115.072 66.1669 114.551 66.2109C114.055 66.2528 113.46 66.2139 113.153 66.2139C112.712 66.2139 112.464 66.2583 112.269 66.3389C112.122 66.3992 111.969 66.4953 111.769 66.6719L111.551 66.877C111.332 67.0955 110.889 67.6075 110.485 67.96C110.062 68.3304 109.453 68.75 108.705 68.75C107.957 68.75 107.349 68.3304 106.925 67.96C106.723 67.7838 106.512 67.5673 106.323 67.3682L105.859 66.877C105.545 66.563 105.337 66.4194 105.142 66.3389C104.946 66.2583 104.698 66.2139 104.257 66.2139C103.95 66.2139 103.355 66.2528 102.859 66.2109C102.37 66.1696 101.765 66.0439 101.281 65.6211L101.187 65.5322C100.685 65.0344 100.541 64.3783 100.495 63.8535C100.452 63.355 100.491 62.7575 100.491 62.4482C100.491 61.9977 100.441 61.7457 100.354 61.5469C100.288 61.3938 100.182 61.2335 99.9932 61.0225L99.7744 60.792C99.2563 60.2739 98.813 59.8333 98.5088 59.4346C98.2311 59.0706 98.0154 58.675 97.9658 58.2061L97.9551 58C97.9551 57.4388 98.1913 56.9815 98.5088 56.5654C98.813 56.1667 99.2564 55.7261 99.7744 55.208C100.289 54.6934 100.491 54.2441 100.491 53.5518C100.491 53.2454 100.452 52.6498 100.494 52.1543C100.538 51.6327 100.679 50.9796 101.173 50.4814L101.268 50.3916C101.752 49.9619 102.359 49.8326 102.852 49.79C103.35 49.747 103.948 49.7861 104.257 49.7861C104.949 49.7861 105.398 49.584 105.913 49.0693C106.431 48.5513 106.872 48.108 107.271 47.8037C107.687 47.4862 108.144 47.25 108.705 47.25C109.266 47.25 109.724 47.4862 110.14 47.8037C110.538 48.108 110.979 48.5513 111.497 49.0693L111.688 49.248C112.128 49.6315 112.547 49.7861 113.153 49.7861C113.46 49.7861 114.055 49.7472 114.551 49.7891C115.072 49.8331 115.725 49.9737 116.224 50.4678L116.313 50.5625C116.743 51.0468 116.872 51.6544 116.915 52.1465C116.958 52.645 116.919 53.2426 116.919 53.5518Z" fill="#FF7500"/>
<path d="M111.359 54.835C111.726 54.6437 112.179 54.7862 112.37 55.1534C112.562 55.5206 112.419 55.9737 112.052 56.1651C111.023 56.701 110.059 57.8205 109.323 58.8926C108.965 59.4156 108.677 59.9029 108.48 60.2588C108.381 60.4364 108.305 60.5803 108.254 60.6787C108.229 60.728 108.211 60.7663 108.198 60.7911L108.182 60.8243L108.131 60.9131C108.002 61.1091 107.786 61.2354 107.548 61.2491C107.275 61.2645 107.016 61.1298 106.87 60.8985C106.641 60.5329 106.273 60.1964 105.929 59.9375C105.762 59.8121 105.612 59.7124 105.505 59.6455C105.452 59.6123 105.409 59.5873 105.382 59.5713C105.369 59.5636 105.359 59.5581 105.353 59.5547C105.35 59.5533 105.348 59.5523 105.347 59.5518L105.281 59.5118C104.968 59.2975 104.861 58.8763 105.046 58.5352C105.244 58.1712 105.7 58.0357 106.064 58.2334L105.705 58.8926L106.064 58.2344H106.065L106.067 58.2354C106.068 58.236 106.069 58.2374 106.07 58.2383C106.074 58.2403 106.079 58.2429 106.085 58.2461C106.097 58.2528 106.114 58.2618 106.134 58.2735C106.174 58.2969 106.231 58.3304 106.299 58.3731C106.435 58.4583 106.623 58.5824 106.831 58.7393C106.995 58.8627 107.179 59.0123 107.365 59.1856C107.559 58.8534 107.802 58.4604 108.087 58.045C108.852 56.9296 109.988 55.5491 111.359 54.835Z" fill="#FF7500"/>
<path d="M209.129 63.9172V52.082H214.303C215.588 52.082 216.715 52.33 217.684 52.826C218.653 53.3219 219.409 54.0095 219.95 54.8886C220.491 55.7678 220.761 56.8048 220.761 57.9996C220.761 59.1831 220.491 60.2201 219.95 61.1105C219.409 61.9897 218.653 62.6773 217.684 63.1732C216.715 63.6692 215.588 63.9172 214.303 63.9172H209.129ZM211.327 62.0574H214.201C215.092 62.0574 215.858 61.8883 216.501 61.5501C217.154 61.212 217.656 60.7386 218.005 60.1299C218.366 59.5213 218.546 58.8112 218.546 57.9996C218.546 57.1768 218.366 56.4667 218.005 55.8693C217.656 55.2606 217.154 54.7872 216.501 54.4491C215.858 54.1109 215.092 53.9418 214.201 53.9418H211.327V62.0574Z" fill="#3C3C46"/>
<path d="M199.492 57.0021H205.376V58.8112H199.492V57.0021ZM199.661 62.0743H206.339V63.9172H197.463V52.082H206.103V53.9249H199.661V62.0743Z" fill="#3C3C46"/>
<path d="M191.727 63.9172V52.082H193.925V63.9172H191.727Z" fill="#3C3C46"/>
<path d="M182.635 57.5262H188.536V59.386H182.635V57.5262ZM182.821 63.9172H180.623V52.082H189.263V53.9249H182.821V63.9172Z" fill="#3C3C46"/>
<path d="M174.887 63.9172V52.082H177.085V63.9172H174.887Z" fill="#3C3C46"/>
<path d="M166.778 63.9172V53.9418H162.855V52.082H172.898V53.9418H168.976V63.9172H166.778Z" fill="#3C3C46"/>
<path d="M151.836 63.9172V52.082H156.705C157.754 52.082 158.65 52.2511 159.394 52.5893C160.149 52.9274 160.729 53.4121 161.135 54.0433C161.541 54.6745 161.744 55.424 161.744 56.292C161.744 57.1599 161.541 57.9094 161.135 58.5406C160.729 59.1606 160.149 59.6396 159.394 59.9778C158.65 60.3046 157.754 60.4681 156.705 60.4681H153.053L154.034 59.4705V63.9172H151.836ZM159.579 63.9172L156.587 59.6227H158.937L161.947 63.9172H159.579ZM154.034 59.7072L153.053 58.659H156.604C157.573 58.659 158.3 58.4505 158.785 58.0334C159.281 57.6164 159.529 57.0359 159.529 56.292C159.529 55.5368 159.281 54.9563 158.785 54.5505C158.3 54.1447 157.573 53.9418 156.604 53.9418H153.053L154.034 52.8598V59.7072Z" fill="#3C3C46"/>
<path d="M142.201 57.0021H148.085V58.8112H142.201V57.0021ZM142.37 62.0743H149.048V63.9172H140.172V52.082H148.812V53.9249H142.37V62.0743Z" fill="#3C3C46"/>
<path d="M133.028 64.0873C132.127 64.0873 131.287 63.9408 130.509 63.6478C129.743 63.3434 129.072 62.9207 128.497 62.3797C127.934 61.8274 127.494 61.1793 127.178 60.4354C126.863 59.6914 126.705 58.8799 126.705 58.0007C126.705 57.1215 126.863 56.31 127.178 55.566C127.494 54.8221 127.939 54.1796 128.514 53.6386C129.089 53.0863 129.76 52.6636 130.526 52.3706C131.293 52.0662 132.132 51.9141 133.045 51.9141C134.015 51.9141 134.9 52.0831 135.7 52.4213C136.5 52.7482 137.176 53.2385 137.729 53.8922L136.308 55.2279C135.88 54.7658 135.401 54.422 134.871 54.1966C134.342 53.9599 133.767 53.8415 133.147 53.8415C132.527 53.8415 131.958 53.9429 131.439 54.1458C130.932 54.3487 130.487 54.6361 130.103 55.0081C129.731 55.3801 129.438 55.8197 129.224 56.3269C129.021 56.8341 128.92 57.392 128.92 58.0007C128.92 58.6094 129.021 59.1673 129.224 59.6745C129.438 60.1818 129.731 60.6213 130.103 60.9933C130.487 61.3653 130.932 61.6527 131.439 61.8556C131.958 62.0585 132.527 62.1599 133.147 62.1599C133.767 62.1599 134.342 62.0472 134.871 61.8218C135.401 61.5851 135.88 61.23 136.308 60.7566L137.729 62.1092C137.176 62.7517 136.5 63.242 135.7 63.5801C134.9 63.9183 134.009 64.0873 133.028 64.0873Z" fill="#3C3C46"/>
</svg>
