<svg width="33" height="33" viewBox="0 0 33 33" fill="none" xmlns="http://www.w3.org/2000/svg">
<path d="M8.56998 9.62603C8.92575 5.79039 11.8812 2.60937 16.1992 2.60937C20.5172 2.60937 23.4727 5.79039 23.8284 9.62603C26.941 10.6019 29.1992 13.5076 29.1992 16.9427C29.1992 21.1768 25.7667 24.6094 21.5326 24.6094L10.8659 24.6094C6.6317 24.6094 3.19922 21.1768 3.19922 16.9427C3.19922 13.5076 5.4575 10.6019 8.56998 9.62603Z" fill="#18A241"/>
<path d="M16.2005 11.9414C16.7528 11.9414 17.2005 12.3891 17.2005 12.9414L17.2005 18.5271L18.8268 16.901C19.2173 16.5105 19.8504 16.5105 20.2409 16.901C20.6315 17.2915 20.6315 17.9246 20.2409 18.3151L17.2005 21.3557L17.2005 29.2747L18.8672 29.2747C19.4195 29.2747 19.8672 29.7225 19.8672 30.2747C19.8672 30.827 19.4195 31.2747 18.8672 31.2747L13.5339 31.2747C12.9816 31.2747 12.5339 30.827 12.5339 30.2747C12.5339 29.7225 12.9816 29.2747 13.5339 29.2747L15.2005 29.2747L15.2005 18.689L12.1601 15.6485C11.7696 15.2579 11.7696 14.6249 12.1601 14.2343C12.5506 13.8438 13.1838 13.8438 13.5743 14.2343L15.2005 15.8605L15.2005 12.9414C15.2005 12.3891 15.6483 11.9414 16.2005 11.9414Z" fill="#775131"/>
</svg>
