<svg width="36" height="37" viewBox="0 0 36 37" fill="none" xmlns="http://www.w3.org/2000/svg">
<rect x="0.00390625" y="0.921875" width="36" height="36" rx="18" fill="#359D54"/>
<path fill-rule="evenodd" clip-rule="evenodd" d="M18.0039 22.0469C17.4516 22.0469 17.0039 21.5992 17.0039 21.0469V11.0469C17.0039 10.4946 17.4516 10.0469 18.0039 10.0469C18.5562 10.0469 19.0039 10.4946 19.0039 11.0469V21.0469C19.0039 21.5992 18.5562 22.0469 18.0039 22.0469Z" fill="white"/>
<path d="M16.7806 27.2357C17.0873 27.5286 17.4819 27.7969 18.0066 27.7969C18.5313 27.7969 18.924 27.5286 19.2306 27.2357C19.5162 26.9629 19.8543 26.5336 20.1983 26.0969L20.9969 25.0831C21.5819 24.3406 22.0716 23.719 22.3717 23.2018C22.6735 22.6815 22.9188 22.0418 22.6252 21.3786C22.3235 20.6973 21.6714 20.4752 21.0846 20.385C20.5105 20.2968 19.7407 20.2968 18.8322 20.2969H17.1791C16.2706 20.2968 15.5007 20.2968 14.9266 20.385C14.3398 20.4752 13.6877 20.6973 13.3861 21.3786C13.0924 22.0418 13.3377 22.6815 13.6395 23.2018C13.9397 23.719 14.4293 24.3406 15.0143 25.0831L15.8129 26.0969C16.1569 26.5336 16.495 26.9629 16.7806 27.2357Z" fill="white"/>
</svg>
