<svg width="36" height="37" viewBox="0 0 36 37" fill="none" xmlns="http://www.w3.org/2000/svg">
<rect x="0.00390625" y="0.921875" width="36" height="36" rx="18" fill="#359D54"/>
<path fill-rule="evenodd" clip-rule="evenodd" d="M11.2353 9.2798C11.439 8.78056 12.0094 8.54084 12.5092 8.74437L15.441 9.93825C15.9262 10.1358 16.169 10.6805 15.9915 11.1729L15.0143 13.8838C14.8314 14.391 14.2715 14.6541 13.7637 14.4715C13.2559 14.2888 12.9925 13.7295 13.1753 13.2223L13.4486 12.4643C10.9302 13.7615 9.20845 16.3857 9.20845 19.4101C9.20845 19.8547 9.24554 20.2899 9.31659 20.7129C9.40589 21.2446 9.04677 21.7479 8.51448 21.8371C7.98219 21.9263 7.47829 21.5676 7.38899 21.0359C7.30008 20.5066 7.25391 19.9634 7.25391 19.4101C7.25391 15.6895 9.33714 12.4563 12.4015 10.8089L11.7713 10.5523C11.2715 10.3487 11.0315 9.77903 11.2353 9.2798ZM8.73501 24.291C8.73501 23.7519 9.17255 23.3148 9.71228 23.3148H13.1175C13.6572 23.3148 14.0948 23.7519 14.0948 24.291C14.0948 24.8302 13.6572 25.2672 13.1175 25.2672H11.855C13.2339 26.483 15.0442 27.2196 17.0266 27.2196C19.0296 27.2196 20.8546 26.4684 22.2384 25.2313C22.6406 24.8717 23.2584 24.9059 23.6184 25.3076C23.9783 25.7093 23.9441 26.3265 23.5419 26.686C21.8136 28.2312 19.5289 29.1719 17.0266 29.1719C14.6082 29.1719 12.3952 28.294 10.6895 26.8415V27.7076C10.6895 28.2468 10.252 28.6838 9.71228 28.6838C9.17255 28.6838 8.73501 28.2468 8.73501 27.7076V24.291Z" fill="white"/>
<path fill-rule="evenodd" clip-rule="evenodd" d="M17.5292 10.5843C17.6185 10.0526 18.1224 9.69394 18.6547 9.78314C23.2774 10.5578 26.7997 14.5721 26.7997 19.41C26.7997 19.9254 26.7597 20.4318 26.6825 20.9261L27.2268 20.5557C27.6728 20.2521 28.2808 20.3672 28.5847 20.8128C28.8885 21.2583 28.7733 21.8656 28.3273 22.1691L25.4585 24.1215C25.2278 24.2785 24.9409 24.3294 24.6702 24.2615C24.3995 24.1936 24.1708 24.0133 24.0417 23.7661L22.5128 20.8376C22.2632 20.3596 22.4489 19.77 22.9274 19.5207C23.406 19.2714 23.9963 19.4568 24.2458 19.9348L24.7156 20.8347C24.8007 20.373 24.8452 19.8969 24.8452 19.41C24.8452 15.5414 22.0281 12.3281 18.3313 11.7086C17.799 11.6194 17.4399 11.116 17.5292 10.5843Z" fill="white"/>
</svg>
