<svg width="36" height="37" viewBox="0 0 36 37" fill="none" xmlns="http://www.w3.org/2000/svg">
<rect x="0.00390625" y="0.921875" width="36" height="36" rx="18" fill="#359D54"/>
<path d="M18.9773 20.8672H20.9273C24.6966 20.8672 27.7523 17.8203 27.7523 14.0616V13.0894C27.7523 12.5525 27.3158 12.1172 26.7773 12.1172H23.8523C20.0839 12.1172 17.0288 15.1626 17.0273 18.9199V26.6993C17.0273 27.2362 17.4638 27.6715 18.0023 27.6715C18.5408 27.6715 18.9773 27.2362 18.9773 26.6993V20.8672Z" fill="white"/>
<path d="M9.22891 10.1719C8.69044 10.1719 8.25391 10.6072 8.25391 11.1441V12.1163C8.25391 15.8749 11.3096 18.9219 15.0789 18.9219H15.7793V18.9194C15.7802 16.7868 16.6112 14.8492 17.9668 13.4094C16.765 11.4667 14.6111 10.1719 12.1539 10.1719H9.22891Z" fill="white"/>
</svg>
