<svg width="48" height="49" viewBox="0 0 48 49" fill="none" xmlns="http://www.w3.org/2000/svg">
<rect y="0.289062" width="48" height="48" rx="24" fill="#3D2D72"/>
<path opacity="0.9" d="M20.2136 28.6863C21.2958 27.9617 22.5995 27.5391 24 27.5391C25.4005 27.5391 26.7042 27.9617 27.7864 28.6863C28.8749 29.4151 29.25 30.6848 29.25 31.7891C29.25 32.2033 28.9142 32.5391 28.5 32.5391H19.5C19.0858 32.5391 18.75 32.2033 18.75 31.7891C18.75 30.6848 19.1251 29.4151 20.2136 28.6863Z" fill="white"/>
<path opacity="0.9" d="M20.75 23.2891C20.75 21.4941 22.2051 20.0391 24 20.0391C25.7949 20.0391 27.25 21.4941 27.25 23.2891C27.25 25.084 25.7949 26.5391 24 26.5391C22.2051 26.5391 20.75 25.084 20.75 23.2891Z" fill="white"/>
<path d="M26.75 18.7891C26.75 17.2703 27.9812 16.0391 29.5 16.0391C31.0188 16.0391 32.25 17.2703 32.25 18.7891C32.25 20.3078 31.0188 21.5391 29.5 21.5391C27.9812 21.5391 26.75 20.3078 26.75 18.7891Z" fill="white"/>
<path d="M15.75 18.7891C15.75 17.2703 16.9812 16.0391 18.5 16.0391C20.0188 16.0391 21.25 17.2703 21.25 18.7891C21.25 20.3078 20.0188 21.5391 18.5 21.5391C16.9812 21.5391 15.75 20.3078 15.75 18.7891Z" fill="white"/>
<path d="M19.5468 22.6376C19.516 22.8503 19.5 23.0678 19.5 23.2891C19.5 24.7067 20.1555 25.9712 21.1799 26.796C20.6532 26.9925 20.1525 27.2424 19.6847 27.5391H14.5C14.0858 27.5391 13.75 27.2033 13.75 26.7891C13.75 25.7154 14.07 24.4517 15.054 23.7104C16.0299 22.9754 17.2167 22.5391 18.5 22.5391C18.8573 22.5391 19.207 22.5729 19.5468 22.6376Z" fill="white"/>
<path d="M28.3155 27.5391H33.5002C33.9144 27.5391 34.2502 27.2033 34.2502 26.7891C34.2502 25.7154 33.9302 24.4517 32.9462 23.7104C31.9703 22.9754 30.7836 22.5391 29.5002 22.5391C29.143 22.5391 28.7932 22.5729 28.4534 22.6376C28.4843 22.8503 28.5002 23.0678 28.5002 23.2891C28.5002 24.7067 27.8447 25.9712 26.8203 26.796C27.347 26.9925 27.8478 27.2424 28.3155 27.5391Z" fill="white"/>
</svg>
