<svg width="48" height="49" viewBox="0 0 48 49" fill="none" xmlns="http://www.w3.org/2000/svg">
<rect y="0.289062" width="48" height="48" rx="24" fill="#359D54"/>
<path d="M30.5025 34.6166L28.8975 34.4891C28.484 34.4474 28.0836 34.3203 27.7218 34.1157C27.36 33.9112 27.0447 33.6337 26.7958 33.3009C26.5468 32.9681 26.3698 32.5872 26.2758 32.1823C26.1819 31.7775 26.1731 31.3575 26.25 30.9491C26.3238 30.5761 26.3615 30.1968 26.3625 29.8166C26.3649 29.0966 26.2235 28.3835 25.9466 27.7189C25.6697 27.0544 25.2629 26.4518 24.75 25.9466V19.5416H26.4975C28.0225 19.5396 29.4846 18.9329 30.5629 17.8545C31.6413 16.7761 32.248 15.3141 32.25 13.7891C32.25 13.5902 32.171 13.3994 32.0303 13.2587C31.8897 13.1181 31.6989 13.0391 31.5 13.0391H29.0025C27.9852 13.0396 26.9862 13.3099 26.1073 13.8224C25.2285 14.3349 24.5014 15.0713 24 15.9566C23.4986 15.0713 22.7715 14.3349 21.8927 13.8224C21.0138 13.3099 20.0148 13.0396 18.9975 13.0391H16.5C16.3011 13.0391 16.1103 13.1181 15.9697 13.2587C15.829 13.3994 15.75 13.5902 15.75 13.7891C15.752 15.3141 16.3587 16.7761 17.4371 17.8545C18.5154 18.9329 19.9775 19.5396 21.5025 19.5416H23.25V24.3791H23.16C21.5104 24.4982 19.9073 24.9797 18.465 25.7891C19.2565 27.254 19.4552 28.9669 19.02 30.5741C18.9018 31.004 18.8438 31.4482 18.8475 31.8941C18.8469 33.0637 19.2555 34.1966 20.0025 35.0966L20.16 35.2841C20.2265 35.359 20.2867 35.4392 20.34 35.5241H31.725C31.6279 35.2727 31.4615 35.054 31.2451 34.8934C31.0287 34.7327 30.7712 34.6368 30.5025 34.6166Z" fill="white"/>
<path d="M25.3594 24.4297L25.7194 24.7822C26.3935 25.4359 26.9299 26.218 27.297 27.0823C27.6641 27.9466 27.8545 28.8757 27.8569 29.8147C27.8574 30.2933 27.8097 30.7707 27.7144 31.2397C27.6735 31.4415 27.6756 31.6496 27.7207 31.8505C27.7657 32.0514 27.8527 32.2405 27.9759 32.4054C28.0991 32.5704 28.2557 32.7075 28.4355 32.8077C28.6153 32.908 28.8143 32.9691 29.0194 32.9872L30.6319 33.1147C31.233 33.1649 31.8039 33.3993 32.267 33.7858C32.73 34.1723 33.0626 34.6923 33.2194 35.2747C33.2433 35.3662 33.2785 35.4544 33.3244 35.5372H35.2519C35.2372 32.799 34.2243 30.1601 32.4032 28.1153C30.582 26.0705 28.0776 24.7601 25.3594 24.4297Z" fill="white"/>
<path d="M17.5725 30.192C17.8943 29.0049 17.7633 27.7405 17.205 26.6445C15.8302 27.6864 14.7133 29.0305 13.9409 30.5728C13.1684 32.1152 12.7609 33.8146 12.75 35.5395H18.4575C17.7296 34.4693 17.3427 33.2038 17.3475 31.9095C17.3465 31.3296 17.4222 30.7521 17.5725 30.192Z" fill="white"/>
</svg>
