<svg width="64" height="65" viewBox="0 0 64 65" fill="none" xmlns="http://www.w3.org/2000/svg">
<g clip-path="url(#clip0_12760_163297)">
<path d="M32.6002 1.03631L35.9118 7.74659C36.015 7.95593 36.2152 8.10135 36.4464 8.13507L43.8514 9.2113C44.4338 9.2956 44.6656 10.0114 44.2448 10.4217L38.8869 15.6448C38.7197 15.8078 38.6431 16.0424 38.6824 16.2728L39.9476 23.6477C40.0474 24.2272 39.4383 24.6691 38.9178 24.3958L32.2946 20.9135C32.0881 20.8047 31.8408 20.8047 31.6342 20.9135L25.0111 24.3958C24.4905 24.6698 23.8822 24.2272 23.9812 23.6477L25.2464 16.2728C25.2857 16.0424 25.2099 15.8078 25.042 15.6448L19.684 10.4217C19.2625 10.0114 19.495 9.2956 20.0774 9.2113L27.4825 8.13507C27.7136 8.10135 27.9131 7.95663 28.0171 7.74659L31.3287 1.03631C31.5879 0.508731 32.3395 0.508731 32.6002 1.03631Z" fill="#88CE65"/>
<path d="M51.8274 39.056C48.2151 39.056 45.2871 36.128 45.2871 32.5157V29.509C45.2871 25.8968 48.2151 22.9688 51.8274 22.9688C55.4396 22.9688 58.3677 25.8968 58.3677 29.509V32.5157C58.3677 36.128 55.4396 39.056 51.8274 39.056Z" fill="#FFCEBF"/>
<path d="M12.0989 39.056C8.48661 39.056 5.55859 36.128 5.55859 32.5157V29.509C5.55859 25.8968 8.48661 22.9688 12.0989 22.9688C15.7111 22.9688 18.6391 25.8968 18.6391 29.509V32.5157C18.6384 36.128 15.7104 39.056 12.0989 39.056Z" fill="#FFCEBF"/>
<path d="M57.8104 51.2707C61.0144 49.7095 62.9994 45.9756 60.7224 43.2338C58.6021 40.6807 55.4066 39.0547 51.8272 39.0547C45.4337 39.0547 40.25 44.2377 40.25 50.6319C40.25 54.8793 44.6978 57.6598 48.516 55.7993L57.8104 51.2707Z" fill="#3D2D72"/>
<path d="M15.4094 55.7993C19.2277 57.6598 23.6754 54.8793 23.6754 50.6319C23.6754 44.2384 18.4924 39.0547 12.0982 39.0547C8.5191 39.0547 5.324 40.6805 3.2038 43.2332C0.926406 45.9752 2.91142 49.7097 6.11572 51.271L15.4094 55.7993Z" fill="#3D2D72"/>
<path d="M31.9641 45.0755C28.3518 45.0755 25.4238 42.1475 25.4238 38.5353V35.5286C25.4238 31.9163 28.3518 28.9883 31.9641 28.9883C35.5764 28.9883 38.5044 31.9163 38.5044 35.5286V38.5353C38.5044 42.1475 35.5764 45.0755 31.9641 45.0755Z" fill="#FFCEBF"/>
<path d="M28.0217 61.9445C30.51 63.157 33.4178 63.157 35.9062 61.9445L42.1271 58.9133C42.9922 58.4918 43.5411 57.6137 43.5411 56.6514C43.5411 50.258 38.3581 45.0742 31.9639 45.0742C25.5698 45.0742 20.3867 50.2573 20.3867 56.6514C20.3867 57.6137 20.9356 58.4918 21.8007 58.9133L28.0217 61.9445Z" fill="#FF7500"/>
</g>
<defs>
<clipPath id="clip0_12760_163297">
<rect width="64" height="64" fill="white" transform="translate(0 0.289062)"/>
</clipPath>
</defs>
</svg>
