<svg width="62" height="65" viewBox="0 0 62 65" fill="none" xmlns="http://www.w3.org/2000/svg">
<path d="M12.3533 31.9494V2.19344C12.3533 1.14168 13.2059 0.289062 14.2576 0.289062H30.2068C31.2586 0.289062 32.1112 1.14168 32.1112 2.19344V31.9494C32.1112 33.0011 32.9638 33.8537 34.0156 33.8537H42.7486C44.3315 33.8537 45.2234 35.6727 44.2543 36.9242L23.6337 63.5507C22.8667 64.5411 21.3689 64.534 20.6114 63.5364L0.391227 36.9099C-0.561031 35.6559 0.333309 33.8537 1.90786 33.8537H10.4489C11.5006 33.8537 12.3533 33.0011 12.3533 31.9494Z" fill="#FF7500"/>
<path d="M58.5348 32.6619C58.5348 42.6536 50.4349 50.7535 40.4432 50.7535C30.4514 50.7535 22.3516 42.6536 22.3516 32.6619C22.3516 22.6702 30.4514 14.5703 40.4432 14.5703C50.4349 14.5703 58.5348 22.6702 58.5348 32.6619Z" fill="#3D2D72"/>
<path d="M58.532 32.663C58.532 22.6713 50.4321 14.5714 40.4404 14.5714C30.4486 14.5714 22.3488 22.6713 22.3488 32.663C22.3488 42.6547 30.4486 50.7546 40.4404 50.7546C50.4321 50.7546 58.532 42.6547 58.532 32.663ZM61.3885 32.663C61.3885 44.2324 52.0097 53.6112 40.4404 53.6112C28.871 53.6112 19.4922 44.2324 19.4922 32.663C19.4922 21.0937 28.871 11.7148 40.4404 11.7148C52.0097 11.7148 61.3885 21.0937 61.3885 32.663Z" fill="#FF7500"/>
<g clip-path="url(#clip0_12762_176412)">
<path d="M45.6365 28.9402C45.6364 28.2594 45.2129 27.5177 44.2682 26.901C43.3319 26.2899 41.9817 25.8809 40.4422 25.8809C38.9028 25.881 37.5529 26.29 36.6167 26.901C35.6718 27.5177 35.2484 28.2594 35.2484 28.9402C35.2484 29.3737 35.3299 29.7045 35.4683 29.9645C35.6043 30.2198 35.8229 30.4595 36.1806 30.6726C36.933 31.1208 38.2569 31.4267 40.4422 31.4267C42.7201 31.4267 44.6059 31.7116 45.947 32.4854C46.6368 32.8833 47.1899 33.4146 47.5636 34.0973C47.9351 34.7759 48.0997 35.5496 48.0997 36.3904C48.0997 38.24 47.093 39.5345 45.6304 40.3116C44.2215 41.0603 42.367 41.354 40.4422 41.354C38.4483 41.354 36.5968 40.8723 35.2121 40.0438C33.8469 39.227 32.7852 37.9652 32.7852 36.3904C32.7852 35.8645 33.2115 35.4382 33.7373 35.4382C34.2632 35.4382 34.6895 35.8645 34.6895 36.3904C34.6896 37.0309 35.1287 37.7746 36.1899 38.4096C37.2319 39.033 38.7332 39.4496 40.4422 39.4496C42.2205 39.4496 43.719 39.1703 44.7368 38.6295C45.7008 38.1173 46.1953 37.406 46.1953 36.3904C46.1953 35.7985 46.0804 35.354 45.8931 35.0118C45.7081 34.6738 45.4229 34.3817 44.9953 34.135C44.1014 33.6193 42.6342 33.3311 40.4422 33.3311C38.1578 33.3311 36.4088 33.0252 35.2056 32.3082C34.5855 31.9387 34.1055 31.4569 33.7876 30.8599C33.4721 30.2675 33.344 29.6145 33.344 28.9402C33.344 27.4056 34.2962 26.1414 35.5757 25.3063C36.8639 24.4655 38.5872 23.9766 40.4422 23.9766C42.2971 23.9766 44.0205 24.4655 45.3087 25.3063C46.5883 26.1414 47.5408 27.4056 47.5408 28.9402C47.5408 29.4661 47.1145 29.8924 46.5887 29.8924C46.0628 29.8924 45.6365 29.4661 45.6365 28.9402Z" fill="white"/>
<path d="M40.0039 42.4656V40.7017C40.0039 40.1758 40.4302 39.7495 40.9561 39.7495C41.482 39.7495 41.9083 40.1758 41.9083 40.7017V42.4656C41.9082 42.9915 41.4819 43.4178 40.9561 43.4178C40.4303 43.4178 40.004 42.9915 40.0039 42.4656ZM40.0039 24.6302V22.8663C40.0039 22.3404 40.4302 21.9141 40.9561 21.9141C41.482 21.9141 41.9083 22.3404 41.9083 22.8663V24.6302C41.9083 25.1561 41.482 25.5824 40.9561 25.5824C40.4302 25.5824 40.0039 25.1561 40.0039 24.6302Z" fill="white"/>
</g>
<defs>
<clipPath id="clip0_12762_176412">
<rect width="24.7569" height="24.7569" fill="white" transform="translate(28.0625 20.2852)"/>
</clipPath>
</defs>
</svg>
