<svg width="24" height="25" viewBox="0 0 24 25" fill="none" xmlns="http://www.w3.org/2000/svg">
<g clip-path="url(#clip0_12248_158721)">
<path d="M21.4685 15.8128C20.1774 15.8924 18.4793 17.1824 16.8414 17.9242C14.8341 18.832 11.7091 18.1013 11.7088 18.1013C12.1908 17.8763 14.1497 17.4096 14.5441 17.2354C16.6411 16.3136 16.4637 14.3902 15.465 14.4064C14.1452 14.4285 13.3708 14.7524 10.7382 15.1113C8.74269 15.3828 6.38242 15.2835 5.25039 15.7157C3.6523 16.3261 1.07812 20.4331 1.07812 20.4331L5.05752 24.2887C5.05752 24.2887 7.52108 21.8633 8.71965 21.8633C11.4514 21.8633 11.5623 21.8256 14.0987 21.6888C15.1767 21.631 15.4019 21.5868 16.0193 21.3777C19.307 20.2671 22.8372 17.3068 22.9021 16.9506C23.0524 16.1258 22.1507 15.7704 21.4685 15.8128Z" fill="#FF7500"/>
<path d="M13.6152 13.073C17.1399 13.073 20.0076 10.206 20.0076 6.68108C20.0077 3.15624 17.1399 0.289062 13.6152 0.289062C10.0906 0.289062 7.22266 3.15624 7.22266 6.68108C7.22266 10.206 10.0906 13.073 13.6152 13.073ZM9.25464 9.44569C9.72687 9.21283 9.58293 8.73555 9.4229 8.3392C9.25428 7.92157 9.12649 7.35288 9.43277 6.96079C9.68531 6.63555 10.1758 6.49545 10.5224 6.29929C10.9406 6.06345 11.3014 5.71889 11.447 5.25142C11.5805 4.82411 11.3736 4.43543 11.0039 4.21952C10.6815 4.03207 10.2869 4.05541 9.92803 4.04395C9.61249 4.03499 9.25355 4.00806 9.10053 3.76216C10.0597 2.28327 11.725 1.30378 13.6152 1.30378C14.5756 1.30378 15.4784 1.55704 16.2601 1.99953C16.2198 2.3024 16.1073 2.57846 15.856 2.78743C15.6018 2.99657 15.2541 3.08055 14.9483 3.18372C14.6575 3.28019 14.366 3.39695 14.1473 3.62097C13.8906 3.88398 13.8419 4.24999 13.8358 4.60094C13.8319 4.82002 13.8332 5.13222 14.0275 5.27988C14.174 5.39067 14.3666 5.31309 14.5059 5.23052C14.9412 4.97237 15.2561 4.53909 15.7219 4.32677C15.8625 4.26352 16.0096 4.26669 16.1061 4.39801C16.3896 4.78096 16.2423 5.26641 15.9907 5.61785C15.8346 5.83431 15.631 6.01799 15.4393 6.20202C15.2942 6.34207 15.1971 6.42872 15.0079 6.49557C14.6605 6.61879 14.7184 7.15501 14.8831 7.39828C15.024 7.60505 15.2057 7.77641 15.3446 7.98842C15.447 8.14583 15.5588 8.2994 15.6936 8.43036C15.9306 8.66059 16.2458 8.71221 16.5633 8.72915C17.0819 8.757 17.6527 8.87529 18.1583 8.7169C18.3213 8.66608 18.4537 8.52963 18.5757 8.41726C18.6379 8.36065 18.6932 8.3189 18.7452 8.29538C18.1898 10.0584 16.748 11.4312 14.9452 11.892C14.6723 11.6513 14.3139 11.4808 14.0226 11.2765C13.9151 11.2016 13.6532 11.0437 13.6404 10.8919C13.6189 10.6302 13.9925 10.6897 14.1514 10.7043C14.3555 10.723 14.5591 10.7597 14.7645 10.7416C14.995 10.7214 15.2009 10.5709 15.3667 10.4196C15.693 10.1218 15.8005 9.64033 15.6347 9.23368C15.4814 8.85835 15.1239 8.67741 14.7879 8.49209C14.6355 8.40812 14.5123 8.3448 14.3859 8.2192C14.2321 8.06667 13.9979 8.01761 13.7871 8.03005C13.4254 8.05046 13.164 8.28167 12.7979 8.1008C12.5433 7.97611 12.364 7.79616 12.0712 7.75929C11.5667 7.69494 11.0746 7.88178 10.7754 8.30294C10.2675 9.0191 10.4873 9.91121 10.7825 10.6711C10.88 10.9217 11.0087 11.2075 11.1737 11.4718C10.2984 11.0237 9.56148 10.3427 9.04483 9.51126C9.1185 9.49889 9.19005 9.47774 9.25464 9.44569Z" fill="#FF7500"/>
</g>
<defs>
<clipPath id="clip0_12248_158721">
<rect width="24" height="24" fill="white" transform="translate(0 0.289062)"/>
</clipPath>
</defs>
</svg>
