<svg width="1920" height="477" viewBox="0 0 1920 477" fill="none" xmlns="http://www.w3.org/2000/svg">
<g clip-path="url(#clip0_7351_151729)">
<rect width="1920" height="477" fill="#3D2D72"/>
<rect x="-887.945" y="694.117" width="801.779" height="1188.8" transform="rotate(-32.5858 -887.945 694.117)" fill="#463481" fill-opacity="0.4"/>
<rect width="384.591" height="1188.8" transform="matrix(-0.842866 0.538124 0.538124 0.842866 552.25 -624.984)" fill="#463481"/>
<rect width="507.23" height="1188.8" transform="matrix(-0.842866 0.538124 0.538124 0.842866 -510.977 -1047.8)" fill="#463481" fill-opacity="0.4"/>
<rect width="507.23" height="1188.8" transform="matrix(-0.842866 0.538124 0.538124 0.842866 2059.35 -994.617)" fill="#463481" fill-opacity="0.4"/>
<rect width="649.53" height="1188.8" transform="matrix(-0.842866 0.538124 0.538124 0.842866 1113.95 -1237.79)" fill="#463481" fill-opacity="0.4"/>
<rect x="402.57" y="127.102" width="597.633" height="1188.8" transform="rotate(-32.5858 402.57 127.102)" fill="#36295F" fill-opacity="0.32"/>
<rect x="1682.39" y="747.266" width="801.779" height="1188.8" transform="rotate(-32.5858 1682.39 747.266)" fill="#36295F" fill-opacity="0.32"/>
<rect width="801.779" height="1188.8" transform="matrix(-0.842866 0.538124 0.538124 0.842866 384.203 72.9531)" fill="#36295F" fill-opacity="0.32"/>
<rect x="536.461" y="-254.594" width="441.831" height="1188.8" transform="rotate(-32.5858 536.461 -254.594)" fill="#36295F" fill-opacity="0.32"/>
<rect x="978.477" y="606.352" width="384.591" height="1188.8" transform="rotate(-32.5858 978.477 606.352)" fill="#36295F" fill-opacity="0.32"/>
<rect x="1176.3" y="83.7969" width="441.831" height="1188.8" transform="rotate(-32.5858 1176.3 83.7969)" fill="#36295F" fill-opacity="0.32"/>
<rect width="441.831" height="1188.8" transform="matrix(-0.842866 0.538124 0.538124 0.842866 -5.05469 -665.203)" fill="#36295F" fill-opacity="0.32"/>
<rect x="1041.81" y="-536.109" width="507.23" height="1188.8" transform="rotate(-32.5858 1041.81 -536.109)" fill="#36295F" fill-opacity="0.32"/>
</g>
<defs>
<clipPath id="clip0_7351_151729">
<rect width="1920" height="477" fill="white"/>
</clipPath>
</defs>
</svg>
