<svg width="28" height="28" viewBox="0 0 28 28" fill="none" xmlns="http://www.w3.org/2000/svg">
<g clip-path="url(#clip0_12248_158711)">
<path d="M24.7575 14.7814C24.4512 14.3723 23.9962 14.1001 23.4908 14.0236C22.9855 13.9472 22.4703 14.0727 22.0567 14.373L17.9794 17.1678C18.1197 17.5487 18.166 17.9579 18.1144 18.3605C18.0469 18.8796 17.8236 19.366 17.4739 19.7555C17.1242 20.145 16.6646 20.4193 16.1558 20.5421L12.9292 21.3107C12.8057 21.338 12.6764 21.3158 12.5691 21.2489C12.4618 21.182 12.385 21.0757 12.3552 20.9529C12.3399 20.8919 12.337 20.8285 12.3465 20.7664C12.3561 20.7044 12.378 20.6448 12.4109 20.5913C12.4437 20.5377 12.487 20.4913 12.538 20.4547C12.5891 20.4181 12.6469 20.3921 12.7082 20.3781L15.9349 19.6095C16.2539 19.5323 16.542 19.36 16.7611 19.1156C16.9803 18.8711 17.1201 18.5659 17.1621 18.2404C17.2035 17.8182 17.0816 17.3963 16.8216 17.0612C16.5617 16.7261 16.1832 16.5033 15.7641 16.4384L6.88873 15.3188C6.90452 15.1937 6.89552 15.0668 6.86225 14.9452C6.82897 14.8236 6.77208 14.7097 6.6948 14.6101C6.61753 14.5105 6.5214 14.4271 6.4119 14.3647C6.30239 14.3022 6.18166 14.262 6.0566 14.2462L4.15201 14.0059C4.02694 13.9902 3.89999 13.9992 3.77841 14.0325C3.65683 14.0658 3.54299 14.1227 3.44341 14.2C3.34382 14.2773 3.26043 14.3734 3.19801 14.4829C3.13558 14.5924 3.09533 14.7132 3.07957 14.8382L2.11834 22.4578C2.08645 22.7104 2.15621 22.9653 2.31227 23.1665C2.46832 23.3676 2.69789 23.4985 2.95047 23.5304L4.85506 23.7707C5.10765 23.8025 5.36254 23.7327 5.56366 23.5766C5.76478 23.4206 5.89566 23.191 5.92751 22.9384L7.8559 23.1817L8.42044 23.4996C10.1711 24.4968 12.1955 24.9061 14.196 24.6673C16.1965 24.4285 18.0677 23.5543 19.5345 22.173L24.5336 17.477C24.8982 17.1353 25.123 16.6703 25.1644 16.1723C25.2058 15.6743 25.0608 15.1786 24.7575 14.7814ZM7.47609 22.1661L6.04766 21.9859L6.76858 16.2712L8.19702 16.4514L7.47609 22.1661ZM18.2951 3.21119C17.356 3.09015 16.4037 3.29601 15.5984 3.79419C14.9421 3.11162 14.0708 2.67572 13.131 2.55972C12.035 2.42424 10.93 2.72901 10.0584 3.40718C9.18683 4.08534 8.61981 5.08153 8.48175 6.17721C7.93249 10.5311 13.6746 14.9847 13.9193 15.1724C13.9868 15.2239 14.0668 15.2567 14.1511 15.2673C14.2354 15.278 14.3209 15.2661 14.3992 15.2329C14.6827 15.1118 21.3511 12.2239 21.9003 7.86999C22.0387 6.77435 21.7369 5.66855 21.061 4.79517C20.3851 3.92179 19.3904 3.35215 18.2951 3.21119ZM16.3304 11.9897C16.2343 12.0502 16.1196 12.074 16.0074 12.0568C15.9115 12.0439 15.8217 12.0023 15.7501 11.9373C15.6784 11.8723 15.6281 11.7871 15.6058 11.693C15.5836 11.5988 15.5905 11.5001 15.6256 11.41C15.6606 11.3198 15.7223 11.2424 15.8023 11.188C17.7555 9.90032 18.9067 8.59365 19.0435 7.50959C19.0871 7.17153 18.9949 6.82995 18.787 6.5598C18.5792 6.28964 18.2726 6.11297 17.9347 6.06854C17.8084 6.05261 17.6936 5.98716 17.6155 5.88658C17.5375 5.786 17.5026 5.65854 17.5185 5.53224C17.5345 5.40594 17.5999 5.29114 17.7005 5.2131C17.8011 5.13505 17.9285 5.10016 18.0548 5.11609C18.6453 5.19265 19.1812 5.5003 19.5451 5.97154C19.909 6.44278 20.071 7.03912 19.9957 7.62972C19.7747 9.38159 17.8808 10.9673 16.3304 11.9897Z" fill="#6131FF"/>
</g>
<defs>
<clipPath id="clip0_12248_158711">
<rect width="24" height="24" fill="white" transform="translate(3.92969 0.429688) rotate(7.19)"/>
</clipPath>
</defs>
</svg>
