<svg width="86" height="86" viewBox="0 0 86 86" fill="none" xmlns="http://www.w3.org/2000/svg">
<rect width="86" height="86" rx="8" fill="white"/>
<path d="M32.5836 32.8802C32.2336 32.9099 31.8975 32.9451 31.5748 32.9869C29.441 33.2628 27.6976 33.8433 26.2676 35.1468C24.8377 36.4504 24.0987 38.1327 23.627 40.232C23.1693 42.2689 22.9272 44.8797 22.6223 48.1685L21.9727 55.1755L21.9702 55.2064C21.6667 59.457 25.0319 63.0734 29.293 63.0734H30.7553C33.7576 63.0734 36.457 61.2447 37.5717 58.4568L39.0256 54.8208C39.276 54.1945 39.4219 53.8354 39.5566 53.5825C39.5746 53.5011 39.6788 53.3334 39.9518 53.315C40.2363 53.2837 40.6239 53.2817 41.2985 53.2817H44.7082C45.3826 53.2817 45.7704 53.2837 46.0549 53.315C46.3011 53.3325 46.4209 53.5007 46.4501 53.5825C46.5848 53.8354 46.7307 54.1945 46.981 54.8208L48.4349 58.4568C49.5498 61.2447 52.2491 63.0734 55.2515 63.0734H56.7137C60.9749 63.0734 64.3399 59.457 64.0365 55.2064L64.034 55.1764L63.3905 48.1809C63.0877 44.8895 62.8474 42.2767 62.3908 40.2383C61.9202 38.1375 61.1819 36.4538 59.7515 35.149C58.3213 33.8443 56.577 33.2633 54.4419 32.9871C54.1139 32.9447 53.7721 32.909 53.4157 32.8789C52.9913 33.8066 52.2111 34.5543 51.2128 34.9237L49.8478 35.4288C48.8706 35.7904 48.212 36.0495 47.8975 36.1944C47.7916 36.4246 47.649 36.8143 47.4383 37.3896C47.3611 37.6006 47.2748 37.8366 47.1778 38.0988L46.6726 39.4637C46.1039 41.0008 44.6383 42.0213 42.9993 42.0213C41.3606 42.0213 39.895 41.0008 39.3261 39.4637L38.8211 38.0988C38.7296 37.8516 38.6471 37.6267 38.5727 37.4235C38.3529 36.8239 38.2027 36.4141 38.0944 36.1791C37.7798 36.0342 37.1283 35.7904 36.151 35.4288L34.786 34.9237C33.7883 34.5545 33.0082 33.8073 32.5836 32.8802Z" fill="#FF7500"/>
<path fill-rule="evenodd" clip-rule="evenodd" d="M50.832 43.9779C50.832 42.8963 51.709 42.0195 52.7904 42.0195H52.808C53.8896 42.0195 54.7663 42.8963 54.7663 43.9779C54.7663 45.0595 53.8896 45.9362 52.808 45.9362H52.7904C51.709 45.9362 50.832 45.0595 50.832 43.9779Z" fill="#484BA0"/>
<path fill-rule="evenodd" clip-rule="evenodd" d="M31.25 43.9779C31.25 42.8963 32.1268 42.0195 33.2083 42.0195H33.2259C34.3075 42.0195 35.1843 42.8963 35.1843 43.9779C35.1843 45.0595 34.3075 45.9362 33.2259 45.9362H33.2083C32.1268 45.9362 31.25 45.0595 31.25 43.9779Z" fill="#484BA0"/>
<path d="M42.9966 22.9258C43.6114 22.9258 44.1609 23.3084 44.3741 23.8848L44.8794 25.2498C45.5883 27.1658 45.8143 27.6863 46.1868 28.0587C46.5591 28.4311 47.0798 28.6572 48.9956 29.3661L50.3606 29.8712C50.9371 30.0845 51.3196 30.6341 51.3196 31.2487C51.3196 31.8633 50.9371 32.4129 50.3606 32.6262L48.9956 33.1313C47.0798 33.8402 46.5591 34.0663 46.1868 34.4387C45.8143 34.8111 45.5883 35.3316 44.8794 37.2476L44.3741 38.6126C44.1609 39.189 43.6114 39.5716 42.9966 39.5716C42.3821 39.5716 41.8326 39.189 41.6193 38.6126L41.1141 37.2476C40.4052 35.3316 40.1792 34.8111 39.8067 34.4387C39.4344 34.0663 38.9138 33.8402 36.9979 33.1313L35.6329 32.6262C35.0565 32.4129 34.6738 31.8633 34.6738 31.2487C34.6738 30.6341 35.0565 30.0845 35.6329 29.8712L36.9979 29.3661C38.9138 28.6572 39.4344 28.4311 39.8067 28.0587C40.1792 27.6863 40.4052 27.1658 41.1141 25.2498L41.6193 23.8848C41.8326 23.3084 42.3821 22.9258 42.9966 22.9258Z" fill="#484BA0"/>
</svg>
