<svg width="64" height="65" viewBox="0 0 64 65" fill="none" xmlns="http://www.w3.org/2000/svg">
<path d="M59.5954 46.8655H4.33396C2.52291 46.8655 1.05469 45.3973 1.05469 43.5863V7.63865C1.05469 5.8276 2.52291 4.35938 4.33396 4.35938H59.5961C61.4065 4.35938 62.8747 5.8276 62.8747 7.63865V43.5863C62.8747 45.3973 61.4065 46.8655 59.5954 46.8655Z" fill="#3D2D72"/>
<path d="M42.5538 56.1672C40.9851 53.3249 40.1562 50.125 40.1562 46.8633H23.7746C23.7746 50.125 22.9456 53.3249 21.377 56.1672H42.5538Z" fill="#3D2D72"/>
<path d="M59.5948 3.65625H4.33333C2.13732 3.65625 0.351562 5.44201 0.351562 7.63732V43.5849C0.351562 45.7803 2.13732 47.5667 4.33333 47.5667H59.5948C61.7901 47.5667 63.5766 45.7803 63.5766 43.5849V7.63732C63.5766 5.44201 61.7901 3.65625 59.5948 3.65625ZM4.33333 5.06125H59.5948C61.0153 5.06125 62.1716 6.21686 62.1716 7.63732V37.5856H1.75656V7.63732C1.75656 6.21686 2.91288 5.06125 4.33333 5.06125Z" fill="#FF7500"/>
<path d="M48.1666 60.1492H15.7617V58.4653C15.7617 56.4196 17.4196 54.7617 19.4653 54.7617H44.4631C46.5087 54.7617 48.1666 56.4196 48.1666 58.4653V60.1492Z" fill="#FF7500"/>
<path d="M11.4474 22.8641C11.2591 22.8641 11.0715 22.789 10.9331 22.64L6.69005 18.0822C6.43926 17.8124 6.43926 17.3945 6.69005 17.1254L10.9331 12.5676C11.198 12.2831 11.6427 12.2683 11.9258 12.5318C12.2096 12.7959 12.2257 13.2406 11.9616 13.5244L8.16459 17.6038L11.9616 21.6832C12.2257 21.967 12.2103 22.4117 11.9258 22.6759C11.7909 22.8016 11.6188 22.8641 11.4474 22.8641Z" fill="#FF7500"/>
<path d="M23.5189 22.8644C23.3475 22.8644 23.1754 22.8019 23.0405 22.6761C22.7567 22.412 22.7405 21.9673 23.0047 21.6835L26.8017 17.6041L23.0047 13.5246C22.7405 13.2408 22.756 12.7961 23.0405 12.532C23.3236 12.2686 23.769 12.2826 24.0331 12.5678L28.2762 17.1257C28.527 17.3954 28.527 17.8134 28.2762 18.0825L24.0331 22.6403C23.8948 22.7892 23.7065 22.8644 23.5189 22.8644Z" fill="#FF7500"/>
<path d="M15.4351 24.2856C15.3599 24.2856 15.2826 24.2729 15.2074 24.2476C14.8407 24.1219 14.6447 23.7221 14.7705 23.3547L18.8668 11.3933C18.9925 11.0266 19.3915 10.8299 19.7596 10.9563C20.1264 11.0821 20.3224 11.4818 20.1966 11.8492L16.1003 23.8107C15.9992 24.1022 15.7266 24.2856 15.4351 24.2856Z" fill="#FF7500"/>
<path d="M43.6015 12.8581H35.0345C34.646 12.8581 34.332 12.5434 34.332 12.1556C34.332 11.7678 34.646 11.4531 35.0345 11.4531H43.6015C43.99 11.4531 44.304 11.7678 44.304 12.1556C44.304 12.5434 43.99 12.8581 43.6015 12.8581Z" fill="#FFDD40"/>
<path d="M57.0181 12.8581H50.39C50.0015 12.8581 49.6875 12.5434 49.6875 12.1556C49.6875 11.7678 50.0015 11.4531 50.39 11.4531H57.0181C57.4066 11.4531 57.7206 11.7678 57.7206 12.1556C57.7206 12.5434 57.4066 12.8581 57.0181 12.8581Z" fill="#88CE65"/>
<path d="M57.0179 19.1823H35.0345C34.646 19.1823 34.332 18.8676 34.332 18.4798C34.332 18.0921 34.646 17.7773 35.0345 17.7773H57.0179C57.4063 17.7773 57.7204 18.0921 57.7204 18.4798C57.7204 18.8676 57.4063 19.1823 57.0179 19.1823Z" fill="#E343FF"/>
<path d="M57.0188 25.5066H44.8705C44.482 25.5066 44.168 25.1918 44.168 24.8041C44.168 24.4163 44.482 24.1016 44.8705 24.1016H57.0188C57.4073 24.1016 57.7213 24.4163 57.7213 24.8041C57.7213 25.1918 57.4073 25.5066 57.0188 25.5066Z" fill="#88CE65"/>
<path d="M38.7529 25.5066H35.0345C34.646 25.5066 34.332 25.1918 34.332 24.8041C34.332 24.4163 34.646 24.1016 35.0345 24.1016H38.7529C39.1413 24.1016 39.4554 24.4163 39.4554 24.8041C39.4554 25.1918 39.1413 25.5066 38.7529 25.5066Z" fill="#FFDD40"/>
<path d="M57.019 31.8269H40.6556C40.2671 31.8269 39.9531 31.5122 39.9531 31.1244C39.9531 30.7366 40.2671 30.4219 40.6556 30.4219H57.019C57.4074 30.4219 57.7215 30.7366 57.7215 31.1244C57.7215 31.5122 57.4074 31.8269 57.019 31.8269Z" fill="#E343FF"/>
<path d="M15.5124 31.8269H7.015C6.62722 31.8269 6.3125 31.5122 6.3125 31.1244C6.3125 30.7366 6.62722 30.4219 7.015 30.4219H15.5124C15.9002 30.4219 16.2149 30.7366 16.2149 31.1244C16.2149 31.5122 15.9002 31.8269 15.5124 31.8269Z" fill="#88CE65"/>
<path d="M35.0344 31.8269H21.6869C21.2991 31.8269 20.9844 31.5122 20.9844 31.1244C20.9844 30.7366 21.2991 30.4219 21.6869 30.4219H35.0344C35.4229 30.4219 35.7369 30.7366 35.7369 31.1244C35.7369 31.5122 35.4229 31.8269 35.0344 31.8269Z" fill="#FFDD40"/>
</svg>
