<svg width="64" height="65" viewBox="0 0 64 65" fill="none" xmlns="http://www.w3.org/2000/svg">
<path d="M57.619 61.6638H42.5061C41.439 61.6638 40.5742 60.799 40.5742 59.7319V16.9553C40.5742 15.8882 41.439 15.0234 42.5061 15.0234H57.619C58.6861 15.0234 59.5508 15.8882 59.5508 16.9553V59.7319C59.5508 60.799 58.6861 61.6638 57.619 61.6638Z" fill="#3D2D72"/>
<path d="M45.6215 18.8291H61.7909C63.38 18.8291 64.1759 16.8214 63.0519 15.6468L51.3237 3.38959C50.6275 2.6618 49.4979 2.6618 48.8017 3.38959L37.0728 15.6468C35.9495 16.8214 36.7447 18.8291 38.3338 18.8291H45.6215Z" fill="#3D2D72"/>
<path d="M37.1689 59.8663V23.6602H27.6564C26.6637 23.6602 25.8594 24.4645 25.8594 25.4572V59.8663C25.8594 60.8589 26.6637 61.6633 27.6564 61.6633H38.9659C37.9733 61.6633 37.1689 60.8589 37.1689 59.8663Z" fill="#AFC340"/>
<path d="M22.4543 59.8658V32.2969H14.9025C13.9098 32.2969 13.1055 33.1012 13.1055 34.0939V59.8658C13.1055 60.8584 13.9098 61.6628 14.9025 61.6628H24.2513C23.2587 61.6628 22.4543 60.8584 22.4543 59.8658Z" fill="#FF7500"/>
<path d="M9.70043 59.8653V40.9336H2.14856C1.15593 40.9336 0.351562 41.738 0.351562 42.7306V59.8653C0.351562 60.8579 1.15593 61.6623 2.14856 61.6623H11.4974C10.5055 61.6623 9.70043 60.8579 9.70043 59.8653Z" fill="#E83568"/>
</svg>
