<svg width="64" height="65" viewBox="0 0 64 65" fill="none" xmlns="http://www.w3.org/2000/svg">
<path d="M33.3333 29.6211H50.6667L58.6667 37.6211V14.9544C58.6667 12.0211 56.2667 9.62109 53.3333 9.62109H33.3333C30.4 9.62109 28 12.0211 28 14.9544V24.2878C28 27.2211 30.4 29.6211 33.3333 29.6211Z" fill="#3D2D72"/>
<path d="M30.6654 25.6211H13.332L5.33203 33.6211V10.9544C5.33203 8.02109 7.73203 5.62109 10.6654 5.62109H30.6654C33.5987 5.62109 35.9987 8.02109 35.9987 10.9544V20.2878C35.9987 23.2211 33.5987 25.6211 30.6654 25.6211Z" fill="#FF7500"/>
<path d="M15.9987 48.2904C19.6806 48.2904 22.6654 45.3056 22.6654 41.6237C22.6654 37.9418 19.6806 34.957 15.9987 34.957C12.3168 34.957 9.33203 37.9418 9.33203 41.6237C9.33203 45.3056 12.3168 48.2904 15.9987 48.2904Z" fill="#FFA726"/>
<path d="M47.9987 48.2904C51.6806 48.2904 54.6654 45.3056 54.6654 41.6237C54.6654 37.9418 51.6806 34.957 47.9987 34.957C44.3168 34.957 41.332 37.9418 41.332 41.6237C41.332 45.3056 44.3168 48.2904 47.9987 48.2904Z" fill="#FFA726"/>
<path d="M26.6654 56.2904C26.6654 56.2904 23.732 50.957 15.9987 50.957C8.26536 50.957 5.33203 56.2904 5.33203 56.2904V58.957H26.6654V56.2904Z" fill="#3D2D72"/>
<path d="M58.6654 56.2904C58.6654 56.2904 55.732 50.957 47.9987 50.957C40.2654 50.957 37.332 56.2904 37.332 56.2904V58.957H58.6654V56.2904Z" fill="#3D2D72"/>
</svg>
