<svg width="49" height="49" viewBox="0 0 49 49" fill="none" xmlns="http://www.w3.org/2000/svg">
<rect x="0.75" y="0.289062" width="48" height="48" rx="24" fill="#8A2CDB"/>
<path opacity="0.81" d="M32.25 24.0391C31.9362 24.0391 31.6555 24.2345 31.5466 24.5288L31.4361 24.8275C31.3594 25.0347 31.2863 25.212 31.2483 25.2932C31.1671 25.3311 30.9956 25.3985 30.7884 25.4752L30.4897 25.5857C30.1954 25.6946 30 25.9753 30 26.2891C30 26.6029 30.1954 26.8836 30.4897 26.9925L30.7884 27.103C30.9956 27.1797 31.1671 27.2471 31.2483 27.285C31.2863 27.3662 31.3594 27.5435 31.4361 27.7507L31.5466 28.0494C31.6555 28.3437 31.9362 28.5391 32.25 28.5391C32.5638 28.5391 32.8445 28.3437 32.9534 28.0494L33.0639 27.7507C33.1406 27.5435 33.2137 27.3662 33.2517 27.285C33.3329 27.2471 33.5044 27.1797 33.7116 27.103L34.0103 26.9925C34.3046 26.8836 34.5 26.6029 34.5 26.2891C34.5 25.9753 34.3046 25.6946 34.0103 25.5857L33.7116 25.4752C33.5044 25.3985 33.3329 25.3311 33.2517 25.2932C33.2137 25.212 33.1406 25.0347 33.0639 24.8275L32.9534 24.5288C32.8445 24.2345 32.5638 24.0391 32.25 24.0391Z" fill="white"/>
<path d="M27.2369 19.2287C27.7472 18.9758 28.3464 18.9758 28.8568 19.2287C29.1294 19.3639 29.421 19.6566 29.6513 19.888C29.8827 20.1183 30.1754 20.4098 30.3105 20.6825C30.5634 21.1928 30.5634 21.792 30.3105 22.3024C30.1754 22.5751 29.9421 22.8074 29.7107 23.0377L27.8109 24.9376L24.6016 21.7285L26.5016 19.8285C26.7319 19.5972 26.9642 19.3639 27.2369 19.2287Z" fill="white"/>
<path d="M23.5408 22.7891L26.75 25.9982L18.9986 33.7496C18.7683 33.9809 18.536 34.2143 18.2633 34.3494C17.753 34.6023 17.1538 34.6023 16.6434 34.3494C16.3708 34.2143 16.0792 33.9215 15.8489 33.6901C15.6176 33.4598 15.3248 33.1683 15.1897 32.8956C14.9368 32.3853 14.9368 31.7861 15.1897 31.2757C15.3248 31.0031 15.5581 30.7708 15.7895 30.5404L23.5408 22.7891Z" fill="white"/>
<path opacity="0.81" d="M23.25 14.0391C22.9362 14.0391 22.6555 14.2345 22.5466 14.5288L22.4361 14.8275C22.3594 15.0347 22.2863 15.2119 22.2483 15.2931C22.1671 15.3311 21.9956 15.3985 21.7885 15.4751L21.4897 15.5857C21.1954 15.6946 21 15.9752 21 16.2891C21 16.6029 21.1954 16.8835 21.4897 16.9925L21.7885 17.103C21.9956 17.1796 22.1671 17.247 22.2483 17.285C22.2863 17.3662 22.3594 17.5435 22.4361 17.7506L22.5466 18.0493C22.6555 18.3437 22.9362 18.5391 23.25 18.5391C23.5638 18.5391 23.8445 18.3437 23.9534 18.0493L24.0639 17.7506C24.1406 17.5435 24.2137 17.3662 24.2517 17.285C24.3329 17.247 24.5044 17.1796 24.7116 17.103L25.0103 16.9925C25.3046 16.8835 25.5 16.6029 25.5 16.2891C25.5 15.9752 25.3046 15.6946 25.0103 15.5857L24.7116 15.4751C24.5044 15.3985 24.3329 15.3311 24.2517 15.2931C24.2137 15.2119 24.1406 15.0347 24.0639 14.8275L23.9534 14.5288C23.8445 14.2345 23.5638 14.0391 23.25 14.0391Z" fill="white"/>
<path opacity="0.81" d="M32.25 14.0391C31.9362 14.0391 31.6555 14.2345 31.5466 14.5288L31.4361 14.8275C31.3594 15.0347 31.2863 15.2119 31.2483 15.2931C31.1671 15.3311 30.9956 15.3985 30.7884 15.4751L30.4897 15.5857C30.1954 15.6946 30 15.9752 30 16.2891C30 16.6029 30.1954 16.8835 30.4897 16.9925L30.7884 17.103C30.9956 17.1796 31.1671 17.247 31.2483 17.285C31.2863 17.3662 31.3594 17.5435 31.4361 17.7506L31.5466 18.0493C31.6555 18.3437 31.9362 18.5391 32.25 18.5391C32.5638 18.5391 32.8445 18.3437 32.9534 18.0493L33.0639 17.7506C33.1406 17.5435 33.2137 17.3662 33.2517 17.285C33.3329 17.247 33.5044 17.1796 33.7116 17.103L34.0103 16.9925C34.3046 16.8835 34.5 16.6029 34.5 16.2891C34.5 15.9752 34.3046 15.6946 34.0103 15.5857L33.7116 15.4751C33.5044 15.3985 33.3329 15.3311 33.2517 15.2931C33.2137 15.2119 33.1406 15.0347 33.0639 14.8275L32.9534 14.5288C32.8445 14.2345 32.5638 14.0391 32.25 14.0391Z" fill="white"/>
</svg>
