<svg width="48" height="49" viewBox="0 0 48 49" fill="none" xmlns="http://www.w3.org/2000/svg">
<rect y="0.289062" width="48" height="48" rx="24" fill="#FF7500"/>
<g clip-path="url(#clip0_12248_158849)">
<path d="M30.9965 27.789C30.9965 31.9293 27.6406 35.2853 23.5002 35.2853C19.3605 35.2853 16.0039 31.9293 16.0039 27.789C16.0039 23.6493 19.3605 20.293 23.5002 20.293C27.6406 20.2929 30.9965 23.6493 30.9965 27.789Z" fill="#FFBB81"/>
<path d="M29.154 22.1348C27.6438 20.625 25.6355 19.793 23.4997 19.793C21.364 19.793 19.3564 20.625 17.8462 22.1348C16.3359 23.6455 15.5039 25.6531 15.5039 27.7889C15.5039 29.9246 16.3359 31.9329 17.8462 33.4431C19.3564 34.9534 21.364 35.7847 23.4997 35.7847C25.6355 35.7847 27.6438 34.9534 29.154 33.4431C30.6643 31.9329 31.4955 29.9245 31.4955 27.7889C31.4955 25.6531 30.6643 23.6455 29.154 22.1348ZM16.522 28.2987H19.0649C19.1074 29.368 19.2773 30.3655 19.4919 31.2349H17.4067C16.8992 30.3399 16.5966 29.3423 16.522 28.2987ZM23.0002 20.8103V27.2996H20.0647C20.1914 24.1861 21.487 21.6482 21.8554 20.9865C22.229 20.8968 22.6113 20.8374 23.0002 20.8103ZM24 20.8103C24.3881 20.8374 24.7712 20.8968 25.144 20.9865C25.5124 21.6482 26.8081 24.186 26.9356 27.2996H24V20.8103ZM20.0654 28.2987H23.0002V31.2349H20.5253C20.2918 30.3582 20.1108 29.3621 20.0654 28.2987ZM23.0002 32.234V34.7681C22.6113 34.7403 22.229 34.681 21.8554 34.5916C21.665 34.2488 21.2256 33.4028 20.8279 32.234H23.0002ZM24 32.234H26.1716C25.7739 33.4036 25.3345 34.2495 25.144 34.5916C24.7712 34.6809 24.3881 34.7403 24 34.7681V32.234ZM24 31.2349V28.2987H26.9348C26.8894 29.3621 26.7085 30.3582 26.4749 31.2349H24ZM27.9346 28.2987H30.4782C30.4035 29.3423 30.1003 30.3399 29.5927 31.2349H27.5075C27.7229 30.3655 27.8921 29.3679 27.9346 28.2987ZM30.4789 27.2996H27.9353C27.8606 25.3374 27.3559 23.6137 26.926 22.4791C26.7818 22.0976 26.6375 21.7581 26.5049 21.467C27.2168 21.8057 27.8731 22.2678 28.4473 22.8417C29.6528 24.0473 30.364 25.615 30.4789 27.2996ZM18.5522 22.8416C19.1264 22.2678 19.7834 21.8056 20.4953 21.4669C20.362 21.758 20.2177 22.0975 20.0735 22.4791C19.6443 23.6136 19.1388 25.3374 19.0642 27.2996H16.5205C16.6362 25.615 17.3474 24.0473 18.5522 22.8416ZM18.096 32.234H19.7739C19.8735 32.5504 19.9753 32.8397 20.0735 33.099C20.2178 33.4805 20.3621 33.8203 20.4954 34.1111C19.7834 33.772 19.1265 33.3105 18.5522 32.7364C18.3918 32.5753 18.2394 32.4075 18.096 32.234ZM26.5049 34.1111C26.6375 33.8203 26.7818 33.4805 26.926 33.099C27.0242 32.8397 27.126 32.5504 27.2263 32.234H28.9035C28.76 32.4075 28.6084 32.5753 28.4473 32.7364C27.873 33.3105 27.2168 33.772 26.5049 34.1111Z" fill="white"/>
<path d="M29.9973 16.8359H17.0042C16.728 16.8359 16.5039 17.0597 16.5039 17.3358V23.2893C16.5039 23.5654 16.728 23.7892 17.0042 23.7892C18.1761 23.7892 21.9876 24.8559 23.3572 25.2672C23.4041 25.2811 23.4524 25.2884 23.5007 25.2884C23.5491 25.2884 23.5974 25.2811 23.6443 25.2672C25.0161 24.856 28.8313 23.7892 29.9973 23.7892C30.2734 23.7892 30.4975 23.5654 30.4975 23.2893V17.3358C30.4976 17.0597 30.2734 16.8359 29.9973 16.8359Z" fill="#656D78"/>
<path d="M34.6318 15.813L23.6316 12.8145C23.5452 12.791 23.4544 12.791 23.3687 12.8145L12.3677 15.813C12.1509 15.8724 12 16.0697 12 16.2953C12 16.5205 12.1509 16.7183 12.3677 16.7772L23.3687 19.7758C23.4112 19.7875 23.4558 19.7934 23.4998 19.7934C23.5445 19.7934 23.5884 19.7875 23.6316 19.7758L34.6318 16.7772C34.8494 16.7183 35.0002 16.5205 35.0002 16.2953C35.0002 16.0697 34.8493 15.8724 34.6318 15.813Z" fill="#434A54"/>
<path d="M34.5012 16.7924H23.0073C22.7312 16.7924 22.5078 16.5686 22.5078 16.2929C22.5078 16.0167 22.7312 15.793 23.0073 15.793H34.5012C34.7773 15.793 35.0014 16.0167 35.0014 16.2929C35.0014 16.5686 34.7773 16.7924 34.5012 16.7924Z" fill="#F6BB42"/>
<path d="M34.4995 19.2914C34.2241 19.2914 34 19.0676 34 18.7915V16.2929C34 16.0167 34.2241 15.793 34.4995 15.793C34.7756 15.793 34.9997 16.0167 34.9997 16.2929V18.7915C34.9997 19.0676 34.7756 19.2914 34.4995 19.2914Z" fill="#F6BB42"/>
<path d="M35.9143 20.0149L34.9145 18.5156C34.8222 18.3765 34.6662 18.293 34.4985 18.293C34.3315 18.293 34.1755 18.3765 34.0833 18.5156L33.0835 20.0149C33.0285 20.0969 33 20.1936 33 20.2921V22.7908C33 23.0669 33.2234 23.2906 33.4995 23.2906H35.4983C35.7744 23.2906 35.9985 23.0669 35.9985 22.7908V20.2921C35.9985 20.1936 35.9692 20.0969 35.9143 20.0149Z" fill="#FFCE54"/>
</g>
<defs>
<clipPath id="clip0_12248_158849">
<rect width="24" height="24" fill="white" transform="translate(12 12.2891)"/>
</clipPath>
</defs>
</svg>
